<svg id="Layer_1" enable-background="new 0 0 510 510" height="512" viewBox="0 0 510 510" width="512" xmlns="http://www.w3.org/2000/svg"><g id="XMLID_4343_"><path id="XMLID_4506_" d="m255 0c-74.438 0-135 60.559-135 135 0 74.438 60.559 135 135 135 0-.063 15-135 15-135s-15-129.951-15-135z" fill="#dd4e4e"/><path id="XMLID_4503_" d="m173.386 277.216-16.196-7.216h-3.19c-60.103 0-109 48.897-109 109v131h190.543z" fill="#28487a"/><path id="XMLID_4500_" d="m276.242 510h188.758v-131c0-60.103-48.897-109-109-109h-3.19l-15.224 6.783z" fill="#152659"/><path id="XMLID_4494_" d="m173.386 277.216c-2.84 8.231-20.536 59.523-23.386 67.784 10.499 10.498 19.501 19.502 30 30-5.246 10.492-9.754 19.508-15 30 8.572 12.76 61.945 92.203 70.543 105h19.457l10-98.211-10-98.211c-9.922-4.421-71.668-31.931-81.614-36.362z" fill="#4e6ba6"/><path id="XMLID_4461_" d="m255 0v270c74.44 0 135-60.561 135-135s-60.56-135-135-135z" fill="#c21456"/><path id="XMLID_4457_" d="m199.394 100.606c11.466 11.466 22.934 22.935 34.393 34.394-11.466 11.466-22.936 22.936-34.393 34.394l21.213 21.213c11.466-11.466 22.935-22.934 34.394-34.393l14.999-21.214-15-21.213c-11.466-11.466-22.935-22.936-34.394-34.394-7.418 7.42-13.793 13.795-21.212 21.213z" fill="#f9f9f9"/><path id="XMLID_4352_" d="m289.394 190.606 21.212-21.212-34.393-34.394 34.393-34.394-21.212-21.212-34.394 34.393v42.426z" fill="#e2dff4"/><path id="XMLID_4497_" d="m360 345-22.414-68.217-82.586 36.795v196.422h21.242l68.758-105-15-30z" fill="#28487a"/></g></svg>