<svg id="Capa_1" enable-background="new 0 0 497.26 497.26" height="512" viewBox="0 0 497.26 497.26" width="512" xmlns="http://www.w3.org/2000/svg"><g><path d="m403.39 138.28-24.37-21.78c-10-8.94-22.95-13.88-36.37-13.88h-43.281v75.38h.011l.001.006-.012-.006h-23.59v119.76h46.841 147.37v-159.48z" fill="#eb9c8d"/><path d="m385.71 297.76c.12-1.339.201-2.684.201-4.04 0-9.558-2.938-18.723-8.499-26.508l-80.927-92.306-6.585 3.094h9.469.011l.001.006-.012-.006h-23.59v119.76h46.841z" fill="#d78878"/><g><g id="XMLID_99_"><g><path d="m313.03 299.79c8.08 11.5 5.4 27.4-6.06 35.61-4.53 3.24-9.75 4.8-14.92 4.8-7.99 0-15.87-3.73-20.88-10.72l-2.82-3.94c8.23 11.52 5.57 27.53-5.94 35.77-4.52 3.24-9.74 4.8-14.91 4.8-8 0-15.88-3.73-20.89-10.73l-1.59-2.22c8.25 11.52 5.6 27.55-5.92 35.8-4.52 3.24-9.74 4.8-14.91 4.8-8 0-15.88-3.73-20.89-10.73l-59.18-83.7c-.7-.99-1.83-1.57-3.03-1.57l-94.16.16v-161.63h71.05l7.73-7.98c10.47-10.8 24.87-16.9 39.92-16.9h82.12l62.15 66.59 71.21 100.8c3.24 4.52 4.8 9.74 4.8 14.92 0 7.99-3.73 15.87-10.73 20.88-11.52 8.24-27.54 5.59-35.79-5.93z" fill="#fed2a4"/></g></g></g><g><g id="XMLID_96_"><g><path d="m497.26 129.537v176.866c0 4.295-3.482 7.777-7.777 7.777h-60.503c-5.385 0-9.75-4.365-9.75-9.75v-172.92c0-5.385 4.365-9.75 9.75-9.75h60.503c4.295 0 7.777 3.482 7.777 7.777z" fill="#fdb97e"/><path d="m199.463 365.352c5.01 7 12.89 10.73 20.89 10.73 2.909 0 5.829-.513 8.636-1.522-1.456 5.61-4.809 10.762-9.889 14.4-4.52 3.24-9.74 4.8-14.91 4.8-8 0-15.88-3.73-20.89-10.73l-59.18-83.7c-.7-.99-1.83-1.57-3.03-1.57l-94.16.16v-161.63h71.05l1.05-1.084v126.679c0 10.081 8.181 18.248 18.262 18.231l14.341.013c4.949.004 9.587 2.415 12.434 6.463z" fill="#ffbd86"/><path d="m79.03 131.51v172.92c0 5.385-4.365 9.75-9.75 9.75h-63.71c-3.076 0-5.57-2.494-5.57-5.57v-181.28c0-3.076 2.494-5.57 5.57-5.57h63.71c5.385 0 9.75 4.365 9.75 9.75z" fill="#ade194"/><path d="m69.28 278.206h-63.71c-3.076 0-5.57-2.494-5.57-5.57v35.974c0 3.076 2.494 5.57 5.57 5.57h63.71c5.385 0 9.75-4.365 9.75-9.75v-35.974c0 5.385-4.365 9.75-9.75 9.75z" fill="#97da7b"/></g></g><g><path d="m248.63 55.83c-4.142 0-7.5-3.358-7.5-7.5v-26.052c0-4.142 3.358-7.5 7.5-7.5 4.143 0 7.5 3.358 7.5 7.5v26.052c0 4.142-3.357 7.5-7.5 7.5z" fill="#fee97d"/></g><g><path d="m326.248 71.792c-1 0-2.016-.201-2.99-.625-3.798-1.654-5.536-6.073-3.882-9.871l10.401-23.884c1.653-3.797 6.075-5.534 9.87-3.882 3.798 1.654 5.536 6.073 3.882 9.871l-10.401 23.884c-1.228 2.822-3.986 4.507-6.88 4.507z" fill="#fee97d"/></g><g><path d="m171.012 71.792c-2.894 0-5.651-1.685-6.88-4.507l-10.402-23.884c-1.654-3.797.083-8.217 3.881-9.871 3.799-1.654 8.218.084 9.871 3.881l10.402 23.884c1.654 3.797-.083 8.217-3.881 9.871-.975.425-1.991.626-2.991.626z" fill="#fee97d"/></g><g><path d="m248.63 482.482c-4.142 0-7.5-3.358-7.5-7.5v-26.052c0-4.142 3.358-7.5 7.5-7.5 4.143 0 7.5 3.358 7.5 7.5v26.051c0 4.143-3.357 7.501-7.5 7.501z" fill="#fee97d"/></g><g><path d="m336.657 464.356c-2.895 0-5.65-1.685-6.88-4.507l-10.401-23.884c-1.654-3.798.084-8.217 3.882-9.871 3.797-1.654 8.218.085 9.87 3.882l10.401 23.884c1.654 3.798-.084 8.217-3.882 9.871-.974.424-1.991.625-2.99.625z" fill="#fee97d"/></g><g><path d="m160.603 464.356c-1 0-2.016-.201-2.991-.626-3.798-1.654-5.536-6.073-3.881-9.871l10.402-23.884c1.653-3.798 6.071-5.537 9.871-3.881 3.798 1.654 5.536 6.073 3.881 9.871l-10.402 23.884c-1.229 2.823-3.986 4.507-6.88 4.507z" fill="#fee97d"/></g></g><path d="m289.9 178-62.15-66.59h-26.317l-49.543 57.93c-6.61 7.718-10.25 17.566-10.25 27.73 0 11.39 4.435 22.098 12.488 30.152 8.054 8.054 18.764 12.49 30.157 12.49 9.674 0 19.158-3.339 26.695-9.396l40.254-32.316h52.795z" fill="#ffbd86"/><path d="m299.369 102.62h-52.529c-7.34 0-14.31 3.21-19.09 8.79l-60.67 70.94c-3.64 4.25-5.44 9.49-5.44 14.72 0 5.81 2.23 11.61 6.63 16.01 8.17 8.17 21.18 8.88 30.19 1.64l43.27-34.737c1.599-1.283 3.587-1.983 5.637-1.983h52.001v-75.38z" fill="#eb9c8d"/></g></svg>