<svg id="Layer_1" height="512" viewBox="0 0 512 512" width="512" xmlns="http://www.w3.org/2000/svg" data-name="Layer 1"><path d="m468.17 172.87-220.85-79.75a19.2 19.2 0 0 0 -24.57 11.52l-38.04 104.88a19.2 19.2 0 0 0 11.53 24.61l220.85 79.75a19.213 19.213 0 0 0 24.57-11.52l38.03-104.88a19.2 19.2 0 0 0 -11.52-24.61z" fill="#5fcda4"/><path d="m444.81 218h-.02c-20.61-7-18.45-19.42-13.56-35.14.22-.71-.34-1.435-1.26-1.785l-161.12-59.893a1.708 1.708 0 0 0 -2.18.624c-6.18 14.12-12.77 24.522-30.49 19.512l-16.74 30.916-.02.063-3.67 9.947c-.23.61.24 1.756 1.05 1.756h.02c20.05 7 17.38 22 12.71 37.265a1.247 1.247 0 0 0 .6 1.613l162.58 60.456a1.3 1.3 0 0 0 1.53-.872c6.47-14.6 14.04-27.416 34.1-19.956l.01.007a1.419 1.419 0 0 0 1.88-.571l15.63-42.091c.23-.61-.24-.851-1.05-1.851z" fill="#4ca987"/><path d="m342.69 169.37a35.967 35.967 0 1 1 -45.86 21.68 35.766 35.766 0 0 1 45.86-21.68z" fill="#5fcda4"/><path d="m448.3 338.31-78.68 43.06c-3.12-20.01-20.16-35.31-40.71-35.31h-55.45a64.908 64.908 0 0 1 -28.71-6.69l-5.71-2.81a90.988 90.988 0 0 0 -95.66 9.5l-13.81 12.51a54.731 54.731 0 0 1 -26.41 13.16l-.25.08 31.76 105.09 45.14-29.03a30.5 30.5 0 0 1 22.68-3.06l83.34 15.61a99.407 99.407 0 0 0 62.78-9.02l144.18-100.71a33.1 33.1 0 0 0 -44.49-12.38z" fill="#ffd8b7"/><path d="m218.67 115.88-6.38 17.59-15.82-5.21a32.266 32.266 0 0 1 -16.49-12.34 113.369 113.369 0 0 0 38.69-.04z" fill="#efc597"/><path d="m200.18 166.86-4.59 12.65-30.73 13.52a5.782 5.782 0 0 1 -7.67-4.4 20.471 20.471 0 0 1 8.3-20.38l9.69-6.87a96.655 96.655 0 0 1 16.41 3.08z" fill="#efc597"/><path d="m246.82 194h-.02c-.81 0-1.28-1.146-1.05-1.756l3.67-9.947.02-.063 16.74-30.916c17.72 5.01 24.31-5.392 30.49-19.512a1.092 1.092 0 0 1 .139-.23l-27.959-10.394a1.708 1.708 0 0 0 -2.18.624c-6.18 14.12-12.77 24.522-30.49 19.512l-16.74 30.916-.02.063-3.67 9.947c-.23.61.24 1.756 1.05 1.756h.02c20.05 7 17.38 22 12.71 37.265a1.245 1.245 0 0 0 .6 1.612l28.406 10.563c.518-1.091.927-1.952.994-2.175 4.67-15.26 7.34-30.265-12.71-37.265z" fill="#418469"/><path d="m254.4 147.33-22.03-7.25-35.9-11.82a32.266 32.266 0 0 1 -16.49-12.34 113.369 113.369 0 0 0 38.69-.04l4.08-11.24a19.2 19.2 0 0 1 24.57-11.52l7.42 2.68-42.87-43.99a20.706 20.706 0 0 0 -21.72-6.32c-58.64 17.94-111.65 12.23-112.62 12.12h-.01l-24.45 68 53.48 24.09a96.345 96.345 0 0 0 40.87 10.56l21.32.69q3.225.105 6.44.43a96.655 96.655 0 0 1 16.41 3.08l8.59 2.4 43.64 12.2a16.727 16.727 0 0 0 10.58-31.73z" fill="#ffd8b7"/><path d="m30.28 32.9-14.28 93.75 32.4 11.93 33.45-92.99z" fill="#4689d3"/><path d="m30.28 32.9-14.28 93.75 29.349 10.807 15.224-97.103z" fill="#3c70a0"/><g id="_Group_" data-name=" Group "><g id="_Path_" data-name=" Path "><path d="m370.137 396.009q-.138 0-.276-.006l-47.3-2.178a224.583 224.583 0 0 0 -41.494 1.949 6 6 0 1 1 -1.673-11.882 235.958 235.958 0 0 1 43.719-2.054l40.482 1.863c-2.93-16.824-17.369-29.637-34.686-29.637h-55.454a71.4 71.4 0 0 1 -31.349-7.307l-5.718-2.814a84.651 84.651 0 0 0 -89.168 8.737l-13.62 12.336a61.153 61.153 0 0 1 -29.333 14.615 6 6 0 1 1 -2.216-11.793 48.976 48.976 0 0 0 23.493-11.717l13.807-12.5c.122-.11.249-.216.38-.316a96.58 96.58 0 0 1 101.954-10.124l5.719 2.813a59.329 59.329 0 0 0 26.051 6.075h55.453c26.042 0 47.229 21.507 47.229 47.945a6 6 0 0 1 -6 6z" fill="#d8b79e"/></g></g><g fill="#80aaff"><path d="m337.389 103.6a6.006 6.006 0 0 1 -5.64-8.048l3.951-10.882a6 6 0 1 1 11.281 4.092l-3.951 10.884a6 6 0 0 1 -5.641 3.954z"/><path d="m347.237 76.449a6 6 0 0 1 -5.637-8.049l15.386-42.424a6 6 0 1 1 11.281 4.091l-15.389 42.426a6 6 0 0 1 -5.641 3.956z"/><path d="m381.33 92.666a6 6 0 0 1 -5.64-8.048l15.158-41.8a6 6 0 0 1 11.281 4.092l-15.158 41.8a6 6 0 0 1 -5.641 3.956z"/><path d="m402.564 34.115a6 6 0 0 1 -5.64-8.048l3.175-8.752a6 6 0 0 1 11.281 4.091l-3.175 8.753a6 6 0 0 1 -5.641 3.956z"/><path d="m408.081 129.129a6 6 0 0 1 -5.641-8.048l3.948-10.884a6 6 0 0 1 11.281 4.092l-3.947 10.884a6 6 0 0 1 -5.641 3.956z"/><path d="m417.928 101.976a6.006 6.006 0 0 1 -5.64-8.048l15.386-42.428a6 6 0 1 1 11.281 4.1l-15.386 42.42a6 6 0 0 1 -5.641 3.956z"/></g><path d="m98.631 297.837h-.019l-5.859-.019a6 6 0 0 1 .019-12h.02l5.858.019a6 6 0 0 1 -.019 12z" fill="#d4e1f4"/><path d="m155.484 298.081h-.028l-40.972-.193a6 6 0 0 1 .028-12h.029l40.971.193a6 6 0 0 1 -.028 12z" fill="#d4e1f4"/><path d="m137.291 269.31h-.02l-5.858-.02a6 6 0 0 1 .019-12h.021l5.857.02a6 6 0 0 1 -.019 12z" fill="#d4e1f4"/><path d="m115.551 269.239h-.036l-32.353-.192a6 6 0 0 1 .034-12h.037l32.353.192a6 6 0 0 1 -.035 12z" fill="#d4e1f4"/><path d="m369.954 477.057a6 6 0 0 1 -3.463-10.905l13.075-9.22a6 6 0 1 1 6.916 9.806l-13.075 9.221a5.975 5.975 0 0 1 -3.453 1.098zm26.151-18.442a6 6 0 0 1 -3.462-10.9l13.076-9.221a6 6 0 1 1 6.915 9.807l-13.076 9.221a5.974 5.974 0 0 1 -3.453 1.093zm26.152-18.442a6 6 0 0 1 -3.463-10.9l13.076-9.221a6 6 0 0 1 6.916 9.806l-13.076 9.221a5.975 5.975 0 0 1 -3.453 1.094zm26.152-18.442a6 6 0 0 1 -3.464-10.9l13.076-9.221a6 6 0 0 1 6.916 9.807l-13.076 9.221a5.971 5.971 0 0 1 -3.452 1.093zm26.151-18.441a6 6 0 0 1 -3.463-10.9l13.076-9.221a6 6 0 1 1 6.915 9.807l-13.076 9.22a5.965 5.965 0 0 1 -3.452 1.094z" fill="#b0b5ca"/><path d="m347.41 189.947a14.32 14.32 0 0 0 -4.035-6.344 5.993 5.993 0 0 0 -11.34-3.656 14.473 14.473 0 0 0 -11.428 20.508 14.263 14.263 0 0 0 8.122 7.416 2.344 2.344 0 0 1 1.332 1.22 2.474 2.474 0 0 1 -3.022 3.391 2.368 2.368 0 0 1 -1.454-1.535 6 6 0 0 0 -11.459 3.561 14.329 14.329 0 0 0 3.7 6.034 6 6 0 0 0 11.139 4.034 14.488 14.488 0 0 0 11.963-20.576 14.266 14.266 0 0 0 -8.122-7.416 2.344 2.344 0 0 1 -1.332-1.22 2.474 2.474 0 0 1 3.022-3.391 2.368 2.368 0 0 1 1.454 1.535 6 6 0 0 0 11.46-3.561z" fill="#428e6f"/><path d="m183.549 75.24a6 6 0 0 1 -1.543-11.8c2.015-.538 4.046-1.1 6.035-1.684a6 6 0 0 1 3.359 11.522c-2.076.6-4.195 1.2-6.3 1.757a5.98 5.98 0 0 1 -1.551.205z" fill="#f4f8fc"/><path d="m109.509 85.493a6 6 0 0 1 -.124-12 315.873 315.873 0 0 0 54.207-5.8 6 6 0 0 1 2.318 11.774 327.819 327.819 0 0 1 -56.273 6.023z" fill="#f4f8fc"/><path d="m102.22 369.52-53.33 6.72 6.89 116.4 80.11-10.56z" fill="#e87187"/></svg>