<svg id="Capa_1" enable-background="new 0 0 512 512" height="512" viewBox="0 0 512 512" width="512" xmlns="http://www.w3.org/2000/svg"><g><g><path d="m249.746 146.879-209.791 144.989h432.091l-209.792-144.989c-3.764-2.601-8.744-2.601-12.508 0z" fill="#fff0af"/></g><g><path d="m463.339 504.597h-414.678c-8.284 0-15-6.716-15-15v-185.569c0-8.284 6.716-15 15-15h414.678c8.284 0 15 6.716 15 15v185.569c0 8.284-6.716 15-15 15z" fill="#ffe07d"/></g><g><path d="m230.823 160.171 190.558 131.697h50.664l-209.872-145.045c-3.715-2.567-8.631-2.567-12.345 0l-19.166 13.246c.053.035.108.065.161.102z" fill="#ffe07d"/></g><g><path d="m463.534 289.028h-46.261l21.742 15.026c4.736 2.47 7.974 7.416 7.974 13.127v185.959c0 .492-.027.977-.074 1.457h16.618c8.177 0 14.805-6.629 14.805-14.805v-185.959c.001-8.176-6.628-14.805-14.804-14.805z" fill="#ffd064"/></g><g><path d="m363.926 9.367c-2.996-2.579-7.427-2.579-10.423 0l-15.068 12.973c-2.996 2.579-7.428 2.579-10.423 0l-15.069-12.972c-2.996-2.579-7.428-2.579-10.423 0l-15.067 12.972c-2.996 2.579-7.428 2.579-10.424 0l-15.064-12.971c-2.996-2.58-7.428-2.58-10.424 0l-15.063 12.97c-2.996 2.58-7.429 2.58-10.425 0l-15.061-12.97c-2.996-2.58-7.428-2.58-10.424-.001l-15.066 12.972c-2.996 2.579-7.428 2.579-10.424 0l-15.065-12.972c-2.996-2.58-7.428-2.58-10.424 0l-4.803 4.136c-1.484 1.278-2.338 3.139-2.338 5.097v416.829h227.103v-418.135c0-1.959-.854-3.82-2.338-5.098z" fill="#ecf4ff"/></g><g><g><path d="m367.214 12.197-3.287-2.83c-2.996-2.579-7.427-2.579-10.423 0l-8.651 7.448c.011.16.026.319.026.48v418.135h24.673v-418.135c-.001-1.959-.854-3.82-2.338-5.098z" fill="#ddeafb"/></g></g><g><path d="m256 465.913-222.339-153.661v177.54c0 8.177 6.628 14.805 14.805 14.805h415.067c8.177 0 14.805-6.628 14.805-14.805v-177.54z" fill="#fff0af"/></g><g><path d="m424.529 504.597-162.356-112.206c-3.715-2.567-8.631-2.567-12.345 0l-162.357 112.206z" fill="#ffe07d"/></g><g><path d="m262.173 392.391c-3.715-2.567-8.631-2.567-12.345 0l-21.507 14.864 140.849 97.342h55.359z" fill="#ffd064"/></g><g><path d="m446.989 333.918v169.222c0 .492-.027.977-.074 1.457h16.618c8.177 0 14.805-6.628 14.805-14.805v-177.54z" fill="#ffe07d"/></g><g><path d="m478.339 442.833c4.089 0 7.403-3.314 7.403-7.403v-131.597c0-8.371-4.657-15.672-11.515-19.456l-97.272-67.226v-199.856c0-4.119-1.791-8.022-4.911-10.707l-3.287-2.83c-5.82-5.01-14.265-5.011-20.083 0l-15.069 12.972c-.222.191-.542.191-.763 0l-15.069-12.972c-5.82-5.01-14.265-5.011-20.083 0l-15.067 12.972c-.222.191-.542.191-.763 0l-15.065-12.971c-5.819-5.01-14.265-5.008-20.084 0l-15.063 12.97c-.219.187-.548.186-.765.001l-15.061-12.971c-5.82-5.01-14.266-5.01-20.084 0l-15.066 12.971c-.222.19-.544.19-.764 0l-15.064-12.97c-5.818-5.011-14.265-5.012-20.084-.001l-4.805 4.136c-3.12 2.687-4.909 6.589-4.909 10.707v64.189c0 4.089 3.314 7.403 7.403 7.403s7.403-3.314 7.403-7.403v-63.88l4.569-3.934c.221-.189.541-.19.763.001l15.065 12.971c5.817 5.009 14.263 5.008 20.084 0l15.066-12.972c.222-.189.543-.189.763 0l15.062 12.971c5.819 5.01 14.265 5.01 20.084 0l15.063-12.97c.217-.187.546-.188.764 0l15.064 12.971c5.819 5.009 14.264 5.01 20.083 0l15.067-12.972c.222-.191.542-.191.763 0l15.068 12.972c5.82 5.01 14.265 5.01 20.083 0l15.068-12.972c.222-.191.542-.191.763 0l3.053 2.628v365.948l-49.872 34.467-45.895-31.719c-6.211-4.293-14.556-4.291-20.764 0l-45.895 31.719-49.872-34.467v-264.454c0-4.089-3.314-7.403-7.403-7.403s-7.403 3.314-7.403 7.403v98.052l-97.271 67.225c-6.858 3.784-11.516 11.086-11.516 19.457v185.959c0 12.245 9.962 22.208 22.208 22.208h415.067c12.245 0 22.208-9.963 22.208-22.208v-18.352c0-4.089-3.314-7.403-7.403-7.403s-7.403 3.314-7.403 7.403v18.352c0 4.082-3.321 7.403-7.403 7.403h-36.697l-101.54-70.176 145.639-100.653v109.065c.004 4.088 3.318 7.402 7.407 7.402zm-343.293-69.512-93.982-64.952v-4.536c0-4.082 3.321-7.403 7.403-7.403h55.996c4.088 0 7.403-3.314 7.403-7.403s-3.314-7.403-7.403-7.403h-36.668l67.251-46.477zm-93.982 116.471v-163.426l145.639 100.652-101.541 70.177h-36.696c-4.081 0-7.402-3.321-7.402-7.403zm70.139 7.403 142.834-98.714c1.175-.813 2.752-.812 3.928 0l142.832 98.714zm333.003-215.569h-67.252v-46.478zm-67.252 91.696v-76.891h86.579c4.082 0 7.403 3.321 7.403 7.403v4.536z"/><path d="m265.832 297.803c3.724 1.685 8.11.029 9.794-3.696s.029-8.11-3.696-9.794l-44.738-20.223c-.066-.03-.133-.059-.2-.087-3.181-1.328-6.808-.608-9.243 1.831-2.434 2.439-3.146 6.068-1.814 9.246.023.056.047.112.072.167l20.109 44.849c1.676 3.769 6.141 5.385 9.783 3.726 3.731-1.673 5.399-6.053 3.726-9.783l-2.921-6.514 12.65-12.649zm-25.609-4.735-3.847-8.579 8.558 3.868z"/><path d="m289.862 276.504c1.894 0 3.789-.723 5.235-2.168 2.891-2.892 2.891-7.578 0-10.47l-32.943-32.943c-2.892-2.889-7.578-2.889-10.469 0-2.891 2.892-2.891 7.578 0 10.47l32.943 32.943c1.445 1.446 3.34 2.168 5.234 2.168z"/><path d="m278.874 205.683c-1.39 1.39-2.17 3.276-2.168 5.242s.786 3.85 2.177 5.238c0 0 .013.013.022.022 0 0 .001.001.001.001l31.417 31.417c2.866 3.115 8.058 3.613 11.073.435.273-.275 6.711-6.764 9.255-9.397 10.126-10.488 8.713-26.862-3.359-38.936 0 0 0 0 0-.001-12.693-12.692-28.513-13.925-39.365-3.074zm19.523 1.415c7.118-7.122 15.904.552 18.425 3.074 5.251 5.251 8.27 12.91 3.179 18.183-.918.95-2.4 2.461-3.906 3.988-3.667-3.643-17.692-17.628-21.51-21.434z"/><path d="m209.664 301.063c-3.897-3.897-9.121-5.997-14.721-5.928-5.499.073-10.658 2.243-14.523 6.109l-9.174 9.172c-2.869 2.758-2.857 7.71 0 10.47l32.943 32.943c2.891 2.89 7.578 2.89 10.469 0 2.891-2.892 2.891-7.578 0-10.47l-9.102-9.102c1.497-1.511 2.984-3.009 3.925-3.95 8.113-8.113 8.194-21.231.183-29.244zm-10.652 18.775c-.935.935-2.403 2.414-3.89 3.915-1.566-1.552-3.121-3.094-4.087-4.061-.829-.829-2.428-2.421-4.07-4.055l3.924-3.924c1.122-1.122 2.632-1.752 4.252-1.774.028-.001.056-.001.084-.001 1.534 0 2.941.564 3.97 1.592 2.201 2.203 2.118 6.008-.183 8.308z"/><path d="m307.062 383.876c23.55 0 42.709-19.159 42.709-42.708 0-23.55-19.159-42.709-42.709-42.709s-42.709 19.159-42.709 42.709c-.001 23.549 19.158 42.708 42.709 42.708zm0-70.613c15.386 0 27.904 12.518 27.904 27.904s-12.518 27.903-27.904 27.903-27.904-12.517-27.904-27.903c-.001-15.386 12.517-27.904 27.904-27.904z"/><path d="m296.44 353.745c1.446 1.445 3.341 2.168 5.235 2.168s3.789-.723 5.235-2.168l13.884-13.884c2.891-2.892 2.891-7.578 0-10.47-2.892-2.89-7.578-2.89-10.47 0l-8.649 8.65-.933-.934c-2.892-2.89-7.578-2.89-10.47 0-2.891 2.892-2.891 7.578 0 10.47z"/><path d="m176.48 72.483h101.603c4.089 0 7.403-3.314 7.403-7.403s-3.314-7.403-7.403-7.403h-101.603c-4.088 0-7.403 3.314-7.403 7.403s3.315 7.403 7.403 7.403z"/><path d="m176.48 108.02h101.603c4.089 0 7.403-3.314 7.403-7.403s-3.314-7.403-7.403-7.403h-101.603c-4.088 0-7.403 3.314-7.403 7.403s3.315 7.403 7.403 7.403z"/><path d="m176.48 144.514h40.101c4.088 0 7.403-3.314 7.403-7.403s-3.314-7.403-7.403-7.403h-40.101c-4.088 0-7.403 3.314-7.403 7.403.001 4.089 3.315 7.403 7.403 7.403z"/><path d="m176.48 180.051h101.603c4.089 0 7.403-3.314 7.403-7.403s-3.314-7.403-7.403-7.403h-101.603c-4.088 0-7.403 3.314-7.403 7.403.001 4.089 3.315 7.403 7.403 7.403z"/><path d="m176.48 216.055h40.101c4.088 0 7.403-3.314 7.403-7.403s-3.314-7.403-7.403-7.403h-40.101c-4.088 0-7.403 3.314-7.403 7.403.001 4.089 3.315 7.403 7.403 7.403z"/><path d="m64.18 416.364h38.308c4.088 0 7.403-3.314 7.403-7.403s-3.314-7.403-7.403-7.403h-38.308c-4.088 0-7.403 3.314-7.403 7.403.001 4.089 3.315 7.403 7.403 7.403z"/><path d="m102.489 446.776c4.088 0 7.403-3.314 7.403-7.403s-3.314-7.403-7.403-7.403h-38.309c-4.088 0-7.403 3.314-7.403 7.403s3.314 7.403 7.403 7.403z"/><path d="m319.546 96.501c-4.203.035-5.104-.111-8.115-2.081-3.662-2.395-8.659-1.13-10.684 2.899-1.708 3.399-.39 7.574 2.806 9.638 3.229 2.086 5.858 3.206 8.644 3.785.046 4.049 3.338 7.318 7.398 7.318 4.089 0 7.403-3.314 7.403-7.403v-.881c5.876-2.359 10.539-7.29 12.163-13.66 2.52-9.883-2.506-19.056-12.022-22.42-3.817-1.349-8.489-3.129-10.906-4.976-.116-.283-.181-1.068.155-1.921.224-.567.67-1.295 1.532-1.556 3.691-1.111 6.044.678 6.299.886-.103-.083-.152-.135-.152-.135l1.492.878c7.618 4.483 15.163-5.899 8.546-11.76-1.444-1.333-3.919-2.921-7.109-3.952-.036-4.058-3.333-7.337-7.399-7.337-4.089 0-7.403 3.314-7.403 7.403v.364c-5.425 2.195-9.408 7.095-10.544 13.128-1.153 6.117.898 12.086 5.352 15.579 4.046 3.174 9.699 5.412 15.203 7.358.803.284 3.248 1.148 2.723 4.276-.285 1.686-1.737 4.546-5.382 4.57z"/></g></g></svg>