<svg id="Capa_1" enable-background="new 0 0 512 512" height="512" viewBox="0 0 512 512" width="512" xmlns="http://www.w3.org/2000/svg"><g><g><g><g fill="#01d0fb"><path d="m375.14 423.623h34.486c2.761 0 5-2.239 5-5v-51.894h-39.486z"/><path d="m409.626 7.5h-309.15c-2.761 0-5 2.239-5 5v37.213h236.001c2.761 0 5 2.239 5 5v33.664h33.664c2.761 0 5 2.239 5 5v50.316h39.486v-131.193c-.001-2.761-2.24-5-5.001-5z"/></g><path d="m133.078 49.713v-37.213c0-2.761 2.239-5 5-5h-37.603c-2.761 0-5 2.239-5 5v37.213z" fill="#01c0fa"/><g fill="#dbf1d0"><path d="m335.477 366.729v40.571c0 1.068-.416 2.073-1.172 2.829l-53.536 53.536c-.755.755-1.76 1.171-2.829 1.171h-221.95v34.664c0 2.761 2.239 5 5 5h309.15c2.761 0 5-2.239 5-5v-132.771z"/><path d="m370.14 88.377h-33.664v55.316h38.664v-50.316c0-2.761-2.238-5-5-5z"/></g><path d="m93.856 499.5v-33.664h-37.866v33.664c0 2.761 2.239 5 5 5h37.866c-2.761 0-5-2.239-5-5z" fill="#c1e9af"/><path d="m251.732 366.729c-2.905 0-5.26-2.355-5.26-5.26v-212.516c0-2.905 2.355-5.26 5.26-5.26h84.745v-88.98c0-2.761-2.239-5-5-5h-309.151c-2.761 0-5 2.239-5 5v406.123c0 2.761 2.239 5 5 5h255.614c1.326 0 2.598-.527 3.536-1.464l53.536-53.536c.938-.938 1.464-2.209 1.464-3.536v-40.572h-84.744z" fill="#fff3de"/><g><path d="m54.634 460.836v-406.123c0-2.761 2.239-5 5-5h-37.308c-2.761 0-5 2.239-5 5v406.123c0 2.761 2.239 5 5 5h37.308c-2.761 0-5-2.238-5-5z" fill="#ffe5c2"/></g><g><path d="m283.012 409.371c-1.657 0-3 1.343-3 3v53c.538-.245 1.039-.574 1.464-1l53.536-53.536c.426-.426.754-.927 1-1.464z" fill="#01d0fb"/></g></g><g><g><path d="m487.465 177.132h-233.413l-7.58 1.052v183.284c0 2.905 2.355 5.26 5.26 5.26h237.681c2.905 0 5.26-2.355 5.26-5.26v-183.284z" fill="#dff6fd"/></g><g><path d="m283.202 361.468v-183.284l7.58-1.052h-36.73l-7.58 1.052v183.284c0 2.905 2.355 5.26 5.26 5.26h36.73c-2.905.001-5.26-2.354-5.26-5.26z" fill="#c8effe"/></g><g><g><path d="m489.413 143.693h-237.681c-2.905 0-5.26 2.355-5.26 5.26v29.231h248.202v-29.231c0-2.905-2.355-5.26-5.261-5.26z" fill="#fb2b3a"/></g><g><path d="m288.462 143.693h-36.73c-2.905 0-5.26 2.355-5.26 5.26v29.231h36.73v-29.231c0-2.905 2.355-5.26 5.26-5.26z" fill="#e41f2d"/></g><g fill="#fff"><circle cx="297.28" cy="219.358" r="13.365"/><circle cx="297.28" cy="270.878" r="13.365"/><circle cx="297.28" cy="322.399" r="13.365"/></g></g></g></g><g><path d="m220.161 110.942h-86.518c-4.142 0-7.5 3.358-7.5 7.5s3.358 7.5 7.5 7.5h86.518c4.142 0 7.5-3.358 7.5-7.5s-3.358-7.5-7.5-7.5z"/><path d="m90.977 394.5h132.57c4.142 0 7.5-3.358 7.5-7.5s-3.358-7.5-7.5-7.5h-132.57c-4.142 0-7.5 3.358-7.5 7.5s3.357 7.5 7.5 7.5z"/><path d="m494.674 287.5c4.142 0 7.5-3.358 7.5-7.5v-131.046c0-7.036-5.724-12.76-12.76-12.76h-67.288v-49.194c0-4.142-3.358-7.5-7.5-7.5s-7.5 3.358-7.5 7.5v49.193h-24.486v-42.816c0-6.893-5.607-12.5-12.5-12.5h-26.164v-26.164c0-6.893-5.607-12.5-12.5-12.5h-228.5v-27.213h304.15v37c0 4.142 3.358 7.5 7.5 7.5s7.5-3.358 7.5-7.5v-39.5c0-6.893-5.607-12.5-12.5-12.5h-309.15c-6.893 0-12.5 5.607-12.5 12.5v29.713h-65.65c-6.893 0-12.5 5.607-12.5 12.5v406.123c0 6.893 5.607 12.5 12.5 12.5h26.164v26.164c0 6.893 5.607 12.5 12.5 12.5h309.15c6.893 0 12.5-5.607 12.5-12.5v-68.377h26.986c6.893 0 12.5-5.607 12.5-12.5v-44.395h67.288c7.036 0 12.76-5.724 12.76-12.76v-46.468c0-4.142-3.358-7.5-7.5-7.5s-7.5 3.358-7.5 7.5v44.229h-233.202v-173.545h233.202v94.316c0 4.142 3.358 7.5 7.5 7.5zm-127.034-191.623v40.316h-23.664v-40.316zm39.486 320.246h-24.486v-41.895h24.486zm-155.394-279.93c-7.036 0-12.76 5.724-12.76 12.76v18.454h-147.995c-4.142 0-7.5 3.358-7.5 7.5s3.358 7.5 7.5 7.5h147.995v21.784h-147.995c-4.142 0-7.5 3.358-7.5 7.5s3.358 7.5 7.5 7.5h147.995v49.957h-147.995c-4.142 0-7.5 3.358-7.5 7.5s3.358 7.5 7.5 7.5h147.995v21.784h-147.995c-4.142 0-7.5 3.358-7.5 7.5s3.358 7.5 7.5 7.5h147.995v21.784h-147.995c-4.142 0-7.5 3.358-7.5 7.5s3.358 7.5 7.5 7.5h147.995v3.752c0 7.036 5.724 12.76 12.76 12.76h77.245v27.643h-45.965c-5.79 0-10.5 4.71-10.5 10.5v45.965h-124.512c-4.142 0-7.5 3.358-7.5 7.5s3.358 7.5 7.5 7.5h129.94c3.339 0 6.478-1.3 8.839-3.661l53.538-53.538c2.36-2.361 3.66-5.5 3.66-8.837v-33.072h23.664v122.772h-304.151v-23.664h49.51c4.142 0 7.5-3.358 7.5-7.5s-3.358-7.5-7.5-7.5h-88.174v-401.123h304.15v78.98zm66.639 280.678-30.859 30.859v-30.859zm-64.399-246.187v-19.491h233.202v19.491z"/><path d="m297.28 198.492c-11.505 0-20.865 9.36-20.865 20.865s9.36 20.865 20.865 20.865 20.865-9.36 20.865-20.865-9.36-20.865-20.865-20.865zm0 26.731c-3.234 0-5.865-2.631-5.865-5.865s2.631-5.865 5.865-5.865 5.865 2.631 5.865 5.865-2.631 5.865-5.865 5.865z"/><path d="m457.231 211.857h-123.305c-4.142 0-7.5 3.358-7.5 7.5s3.358 7.5 7.5 7.5h123.305c4.142 0 7.5-3.358 7.5-7.5s-3.358-7.5-7.5-7.5z"/><path d="m297.28 250.013c-11.505 0-20.865 9.36-20.865 20.865s9.36 20.865 20.865 20.865 20.865-9.36 20.865-20.865-9.36-20.865-20.865-20.865zm0 26.731c-3.234 0-5.865-2.631-5.865-5.865s2.631-5.865 5.865-5.865 5.865 2.631 5.865 5.865-2.631 5.865-5.865 5.865z"/><path d="m457.231 263.378h-123.305c-4.142 0-7.5 3.358-7.5 7.5s3.358 7.5 7.5 7.5h123.305c4.142 0 7.5-3.358 7.5-7.5s-3.358-7.5-7.5-7.5z"/><path d="m297.28 301.534c-11.505 0-20.865 9.36-20.865 20.865s9.36 20.865 20.865 20.865 20.865-9.36 20.865-20.865-9.36-20.865-20.865-20.865zm0 26.73c-3.234 0-5.865-2.631-5.865-5.865s2.631-5.865 5.865-5.865 5.865 2.631 5.865 5.865-2.631 5.865-5.865 5.865z"/><path d="m457.231 314.899h-123.305c-4.142 0-7.5 3.358-7.5 7.5s3.358 7.5 7.5 7.5h123.305c4.142 0 7.5-3.358 7.5-7.5s-3.358-7.5-7.5-7.5z"/></g></g></svg>