<svg id="Layer_1" height="512" viewBox="0 0 512 512" width="512" xmlns="http://www.w3.org/2000/svg" data-name="Layer 1"><path d="m353.782 120.277-110.382-109.061-154.459.523a43.44 43.44 0 0 0 -43.224 43.621l1.527 319.78a43.408 43.408 0 0 0 43.6 43.2l161.126-1.095 102.37-137.245h.66z" fill="#c2e0f2"/><path d="m295.94 250.26-10.69 27.7-16.52-.48a82.181 82.181 0 0 1 -19.44 20.41l1.21 16.52-27.21 11.91-11.42-11.91a91.291 91.291 0 0 1 -28.19.73l-10.69 12.39-27.7-10.69.48-16.52a82 82 0 0 1 -20.41-19.44l-16.52 1.21-11.91-27.21 11.91-11.42a90.983 90.983 0 0 1 -.73-28.19l-12.4-10.69 10.7-27.7 16.52.48a82 82 0 0 1 19.44-20.41l-1.22-16.52 27.22-11.91 11.42 11.91a91.291 91.291 0 0 1 28.19-.73l10.69-12.39 27.7 10.69-.48 16.52a82 82 0 0 1 20.41 19.44l16.52-1.21 11.91 27.21-11.91 11.42a91.291 91.291 0 0 1 .73 28.19z" fill="#978cac"/><path d="m195.83 169.84a57.58 57.58 0 1 1 -57.58 57.58 57.581 57.581 0 0 1 57.58-57.58z" fill="#7c758e"/><path d="m195.83 203.76a23.66 23.66 0 1 1 -23.66 23.66 23.654 23.654 0 0 1 23.66-23.66z" fill="#978cac"/><path d="m433.52 309.825a111.418 111.418 0 0 0 -78.95-32.825h-.23a112.01 112.01 0 0 0 -48.8 212.821l.07-.135 97.92-.048a112.025 112.025 0 0 0 29.99-179.813z" fill="#4ca987"/><path d="m353.73 333a7.632 7.632 0 0 0 -5.32 2.31 7.443 7.443 0 0 0 -2.2 5.29 16.4 16.4 0 0 1 -16.42 16.4h-10.79v15.08a35.5 35.5 0 1 0 71 0v-39.08z" fill="#ffd8b7"/><path d="m403.53 454.63v35.01a112.182 112.182 0 0 1 -97.99.19l.07-.14v-35.06a31.993 31.993 0 0 1 31.99-31.99h33.94a32 32 0 0 1 31.99 31.99z" fill="#4e6cca"/><path d="m390.32 319.98a21.288 21.288 0 0 0 -15.13-6.215 30.9 30.9 0 0 1 -9.01-1.323c-3.44-1.04-8.29-2.3-11.61-2.3a35.588 35.588 0 0 0 -35.57 35.628v13.23h10.79a16.354 16.354 0 0 0 16.42-16.345 7.637 7.637 0 0 1 7.52-7.655h42.86a20.881 20.881 0 0 0 -6.27-15.02z" fill="#6d7486"/><path d="m353.782 120.277-66.562.4a43.4 43.4 0 0 1 -43.61-43.19l-.21-66.271z" fill="#b3d1e7"/><path d="m77.244 375.14-1.527-319.65a43.252 43.252 0 0 1 43.226-43.49h-30a43.252 43.252 0 0 0 -43.226 43.49l1.527 319.715a43.379 43.379 0 0 0 43.6 43.167l25.944-.192a43.424 43.424 0 0 1 -39.544-43.04z" fill="#9bb7c6"/><path d="m75.046 58.886a6 6 0 0 1 -6-6v-3.713a6 6 0 0 1 12 0v3.713a6 6 0 0 1 -6 6z" fill="#f4f8fc"/><path d="m75.046 153.589a6 6 0 0 1 -6-6v-73.178a6 6 0 0 1 12 0v73.178a6 6 0 0 1 -6 6z" fill="#f4f8fc"/><path d="m382.14 457.849h-9.769a6 6 0 0 1 0-12h9.769a6 6 0 0 1 0 12z" fill="#3a5393"/></svg>